<?xml version="1.0" encoding="UTF-8"?>
<svg id="Camada_2" data-name="Camada 2" xmlns="http://www.w3.org/2000/svg" viewBox="0 0 718.15 1077.22">
  <defs>
    <style>
      .cls-1 {
        fill: #008fff;
      }

      .cls-2 {
        fill: #154c55;
      }

      .cls-3 {
        fill: #d8b980;
      }

      .cls-4 {
        fill: #b79c67;
      }

      .cls-5 {
        fill: #074736;
      }
    </style>
  </defs>
  <g id="Camada_1-2" data-name="Camada 1">
    <g>
      <path class="cls-4" d="M359.08,0L0,359.14l179.44,179.44h.06v.07l58.71,58.65v.07l48.34,48.34,48.34,48.34,24.17,24.17,120.92-120.92,58.71-58.65v-.07l179.44-179.44L359.08,0ZM431.59,191.59c0-18.62,20.21-30.25,36.32-20.94,7.46,4.29,12.08,12.28,12.08,20.94v288.28l-31.11-31.04-17.3-17.3v-239.93ZM238.22,191.59c0-8.65,4.56-16.64,12.09-20.94,3.9-2.25,8.06-3.3,12.08-3.3,12.62,0,24.17,10.1,24.17,24.24v167.42l-48.34.07v-167.48ZM141.46,247.46c0-8.65,4.62-16.64,12.08-21,3.9-2.25,7.99-3.3,12.02-3.3,12.68,0,24.3,10.17,24.3,24.24v111.68h-48.41v-111.61ZM359.08,359.01h-24.17v-223.22c0-8.65,4.62-16.64,12.08-21,3.76-2.11,7.92-3.24,12.09-3.24s8.32,1.12,12.08,3.24c7.53,4.36,12.09,12.35,12.09,20.94v247.46l-24.17-24.17ZM564.6,491.75c-3.9,2.25-8.06,3.3-12.08,3.3-12.62,0-24.17-10.1-24.17-24.24v-223.42c0-18.56,20.14-30.25,36.26-20.94,7.46,4.36,12.09,12.35,12.09,21v223.36c0,8.59-4.62,16.58-12.09,20.94Z"/>
      <polygon class="cls-1" points="538.65 538.58 480 597.23 480 597.29 359.08 718.22 334.9 694.04 286.56 645.7 238.22 597.36 179.44 538.58 179.5 538.58 238.22 479.87 238.22 479.8 286.56 431.52 359.08 359.01 383.25 383.18 448.89 448.83 480 479.93 538.65 538.58"/>
      <path class="cls-4" d="M538.71,538.65v-.07h-.07l-58.65-58.65v-.07l-31.11-31.04-65.65-65.65-24.17-24.17-179.57,179.57v.07L0,718.08l359.08,359.14,359.07-359.14-179.44-179.44ZM189.87,829.83c0,18.56-20.21,30.25-36.32,20.94-7.46-4.36-12.08-12.35-12.08-20.94v-223.42c0-8.59,4.62-16.58,12.08-20.94,3.9-2.25,7.99-3.3,12.02-3.3,12.68,0,24.3,10.17,24.3,24.24v223.42ZM286.56,885.63c0,18.62-20.14,30.25-36.26,20.94-7.53-4.29-12.09-12.28-12.09-20.94v-288.28l48.34,48.34v239.93ZM383.25,941.51c0,8.59-4.56,16.58-12.09,20.94-3.76,2.18-7.86,3.24-12.08,3.24s-8.32-1.06-12.09-3.24c-7.46-4.36-12.08-12.35-12.08-20.94v-247.46l24.17,24.17h24.17v223.29ZM480,885.63c0,8.65-4.62,16.64-12.08,20.94-3.9,2.25-8.06,3.3-12.09,3.3-12.61,0-24.24-10.1-24.24-24.24v-167.42l48.41-.07v167.48ZM576.69,829.83c0,8.59-4.62,16.58-12.09,20.94-3.9,2.25-7.99,3.3-12.02,3.3-12.62,0-24.24-10.17-24.24-24.24v-111.68h48.34v111.68Z"/>
      <g>
        <path class="cls-5" d="M576.69,606.41v111.74h-48.34v-111.74c0-18.56,20.14-30.25,36.26-20.94,7.46,4.36,12.09,12.35,12.09,20.94Z"/>
        <path class="cls-5" d="M480,550.6v167.55l-48.41.07v-167.62c0-4.42,1.12-8.52,3.17-11.95,6.21-11.03,20.87-16.05,33.15-8.98,3.76,2.18,6.8,5.28,8.91,8.98,2.05,3.57,3.17,7.66,3.17,11.95Z"/>
        <path class="cls-5" d="M383.25,494.73v223.49h-24.17l-24.17-24.17v-199.32c0-8.59,4.62-16.58,12.08-20.94,3.76-2.11,7.92-3.24,12.09-3.24s8.32,1.12,12.08,3.24c7.53,4.36,12.09,12.35,12.09,20.94Z"/>
        <path class="cls-5" d="M286.56,550.6v95.1l-48.34-48.34v-46.76c0-4.29,1.12-8.39,3.17-11.95,2.05-3.7,5.09-6.8,8.92-8.98,3.9-2.25,8.06-3.3,12.08-3.3,8.65,0,16.78,4.75,21.07,12.28,1.98,3.43,3.1,7.53,3.1,11.95Z"/>
      </g>
      <g>
        <path class="cls-5" d="M480,479.87v46.76c0,4.29-1.12,8.45-3.17,12.02-2.11,3.63-5.15,6.74-8.91,8.92-3.9,2.25-8.06,3.3-12.09,3.3-8.65,0-16.78-4.69-21.07-12.22-1.98-3.5-3.17-7.53-3.17-12.02v-95.1l17.3,17.3,31.11,31.04Z"/>
        <path class="cls-5" d="M383.25,383.18v199.32c0,8.59-4.56,16.58-12.09,20.94-3.76,2.18-7.86,3.24-12.08,3.24s-8.32-1.06-12.09-3.24c-7.46-4.36-12.08-12.35-12.08-20.94v-223.49h24.17l24.17,24.17Z"/>
        <path class="cls-5" d="M286.56,359.01v167.62c0,4.49-1.19,8.52-3.1,12.02-6.34,10.96-20.94,15.98-33.15,8.92-3.76-2.18-6.8-5.28-8.92-8.92-2.05-3.57-3.17-7.73-3.17-12.02v-167.55l48.34-.07Z"/>
        <path class="cls-5" d="M189.87,359.07v111.74c0,18.62-20.21,30.25-36.32,20.94-7.46-4.36-12.08-12.35-12.08-20.94v-111.74h48.41Z"/>
      </g>
      <polygon class="cls-2" points="718.15 718.08 576.69 718.15 480 718.15 431.59 718.22 359.08 718.22 334.9 694.04 286.56 645.7 238.22 597.36 0 359.14 141.46 359.07 238.22 359.07 286.56 359.01 359.08 359.01 383.25 383.18 448.89 448.83 480 479.93 718.15 718.08"/>
      <polygon class="cls-3" points="718.15 718.08 576.69 718.15 480 718.15 431.59 718.22 359.08 718.22 334.9 694.04 286.56 645.7 238.22 597.36 0 359.14 141.46 359.07 238.22 359.07 286.56 359.01 359.08 359.01 383.25 383.18 448.89 448.83 480 479.93 718.15 718.08"/>
    </g>
  </g>
</svg>