<?xml version="1.0" encoding="UTF-8"?>
<svg id="Camada_2" data-name="Camada 2" xmlns="http://www.w3.org/2000/svg" viewBox="0 0 2432.19 583.14">
  <defs>
    <style>
      .cls-1 {
        fill: #008fff;
      }

      .cls-2 {
        fill: #154c55;
      }

      .cls-3 {
        fill: #d8b980;
      }

      .cls-4 {
        fill: #b79c67;
      }

      .cls-5 {
        fill: #074736;
      }

      .cls-6 {
        fill: #f3f3f3;
      }
    </style>
  </defs>
  <g id="Camada_1-2" data-name="Camada 1">
    <g>
      <g>
        <g>
          <path class="cls-6" d="M747.5,142.81c-7.74,7.88-13.28,17.54-18.17,26.92l-9.48,18.9h-193.04c-4.39,0-6.49,1.22-8.02,2.58-2.16,2.09-3.1,4.29-3.1,7.04,0,2.34.7,4.15,2.3,6.17,1.32,1.67,3.45,3.45,8.82,3.45h76.57c19.25,0,34.52,6.14,45.4,18.27,8.89,10.11,13.74,22.98,13.74,36.33,0,12.66-4.11,24.41-11.89,33.96-10.5,13.56-26.4,20.43-47.25,20.43h-129.86v-45.19h131.56c5.61,0,7.88-1.95,9.24-3.63,1.5-1.88,2.13-3.8,2.13-6.42s-.66-4.22-2.41-5.93c-1.57-1.67-3.77-3.28-8.96-3.28h-76.99c-25.39,0-39.89-11.75-47.53-21.62-7.15-9.59-10.95-20.92-10.95-32.11,0-14.26,5.37-27.97,15.1-38.64,11.09-11.68,25.21-17.26,43.38-17.26h219.4Z"/>
          <path class="cls-6" d="M684.5,290.19l-.21.49,11.65-23.26-11.44,22.77Z"/>
          <path class="cls-6" d="M883.95,261l-46.31-89.23c-7.71-14.99-20.02-32.22-46.79-32.22s-39.09,17.19-49.03,36.44l-42.33,84.38h-.03l-.31.66-3.21,6.38-11.65,23.26-.28.59-.24.56-12.55,25.07h54.05l13.32-31.14h105.38l5.27,10.15,4.85,9.38,6,11.61h53.18l-29.29-55.9ZM760.44,241.41l24.39-49.63c1.05-2.14,3.25-3.49,5.63-3.45h0c2.29.03,4.38,1.33,5.42,3.37l25.36,49.72h-60.81Z"/>
          <path class="cls-6" d="M972.77,255.58v-112.78h-46.06v112.78c0,40.68,20.7,61.31,61.53,61.31h120.13v-45.2h-120.13c-14.17,0-15.47-1.36-15.47-16.11Z"/>
          <path class="cls-6" d="M1355.19,295.1c0,2.57-1.29,3.86-3.6,3.86h-67.34c-28.02,0-47.29-11.05-59.37-27.5-7.97-11.05-12.59-23.9-12.59-38.3,0-17.22,6.43-32.39,17.48-44.47,12.08-13.11,28.79-21.59,54.49-21.59h92.27v-21.33h-92.27c-32.13,0-54.23,10.8-70.43,28.27-14.39,15.68-23.13,35.98-23.13,58.6,0,18.51,5.91,35.21,15.94,49.61,15.68,22.62,41.38,37.27,77.62,37.27h81.48c7.46,0,11.06-3.6,11.06-11.05v-84.05h-21.59v70.68Z"/>
          <path class="cls-6" d="M1406.09,169.16v126.2c0,16.19,8.22,24.16,24.42,24.16h158.33v-20.56h-155.25c-4.11,0-6.17-2.06-6.17-6.17v-50.12h160.65v-20.56h-160.65v-49.09c0-3.86,2.06-5.91,6.17-5.91h155.25v-21.33h-158.07c-16.45,0-24.67,7.71-24.67,23.39Z"/>
          <path class="cls-6" d="M1751.81,223.13h-90.99c-11.05,0-18.51-4.11-23.39-10.28-4.37-5.4-6.43-11.31-6.43-17.74,0-7.97,3.08-14.91,8.99-20.56,4.88-4.37,11.31-7.45,20.82-7.45h136.48v-21.33h-134.94c-18.51,0-30.33,5.65-39.33,15.17-8.23,9-13.62,21.08-13.62,34.7,0,10.28,3.6,20.05,9.51,28.02,9,11.57,23.13,19.28,43.44,19.28h91.5c10.02,0,17.22,3.34,22.36,8.74,5.14,5.14,7.71,11.31,7.71,18.76,0,6.94-2.06,12.85-6.17,17.99-5.14,6.43-12.85,10.54-23.9,10.54h-139.82v20.56h137.77c21.59,0,34.7-6.94,43.18-17.99,6.94-8.48,10.54-19.02,10.54-30.07,0-12.34-4.63-23.65-12.08-32.13-9-10.02-21.85-16.19-41.64-16.19Z"/>
          <polygon class="cls-6" points="2020.15 145.77 1820.95 145.77 1820.95 167.1 1909.63 167.1 1909.63 319.52 1931.22 319.52 1931.22 167.1 2020.15 167.1 2020.15 145.77"/>
          <rect class="cls-6" x="2031.72" y="97.19" width="132.37" height="18.25"/>
          <path class="cls-6" d="M2409.05,174.04c-16.19-17.48-38.3-28.27-70.43-28.27h-33.93c-32.13,0-54.23,10.8-70.43,28.27-14.39,15.68-23.13,35.98-23.13,58.6,0,18.51,5.91,35.21,15.94,49.61,15.68,22.62,41.38,37.27,77.62,37.27h33.93c36.24,0,61.95-14.65,77.62-37.27,10.02-14.39,15.94-31.1,15.94-49.61,0-22.62-8.74-42.92-23.13-58.6ZM2398,271.46c-12.08,16.45-31.36,27.5-59.37,27.5h-33.93c-28.02,0-47.29-11.05-59.37-27.5-7.97-11.05-12.59-23.9-12.59-38.3,0-17.22,6.43-32.39,17.48-44.47,12.08-13.11,28.79-21.59,54.49-21.59h33.93c25.7,0,42.41,8.48,54.49,21.59,11.05,12.08,17.48,27.25,17.48,44.47,0,14.39-4.63,27.24-12.6,38.3Z"/>
          <path class="cls-6" d="M2211.86,314.2l-5.54-10.64-68.69-132.33c-10.04-19.56-21.34-29.33-40.87-29.33-21.86,0-31.1,10.29-43.45,34.21l-61.13,121.83h0l-11.02,21.58h24.55l11.02-21.62,7.53-15.41h145.76l12.66,24.51.45.87,3.07,5.96c.24.45.49.91.7,1.39l.14.31,2.02,3.98h25.59l-2.79-5.33ZM2034.03,262.97l42.92-87.38c4.88-9,11.05-12.59,19.53-12.59s14.68,4.36,19.04,12.83l44.46,87.14h-125.95Z"/>
          <path class="cls-6" d="M2186.9,315.24l-3.77-7.36,3.07,5.96c.24.45.49.91.7,1.39Z"/>
        </g>
        <g>
          <path class="cls-4" d="M469.63,484.22v-82.76h30.63c6.79,0,12.28,1.82,16.46,5.46,4.18,3.64,6.26,8.61,6.26,14.93,0,4.79-1.16,8.72-3.48,11.78-2.32,3.06-5.54,5.24-9.66,6.55v.33c2.86.48,5.43,1.3,7.72,2.45,2.28,1.15,4.16,2.62,5.62,4.4,1.47,1.78,2.59,3.83,3.37,6.15.78,2.32,1.17,4.84,1.17,7.55,0,7.43-2.63,13.14-7.88,17.15-5.25,4.01-12.24,6.02-20.97,6.02h-29.24ZM479.37,410.15v27.12h12.98c7.05,0,12.28-1.08,15.68-3.23,3.4-2.15,5.1-5.68,5.1-10.58,0-4.46-1.32-7.79-3.96-10-2.64-2.21-6.07-3.31-10.3-3.31h-19.49ZM479.37,445.96v29.46h14.7c2.93,0,5.5-.1,7.71-.31,2.21-.2,4.35-.61,6.43-1.22,2.08-.61,3.79-1.42,5.15-2.42,1.36-1,2.44-2.36,3.26-4.06.82-1.71,1.23-3.75,1.23-6.13,0-5.01-1.61-8.82-4.82-11.42-3.21-2.6-7.54-3.9-13-3.9h-20.66Z"/>
          <path class="cls-4" d="M626.44,401.46h29.69c7.8,0,14.09,2.34,18.88,7.02,4.79,4.68,7.18,10.84,7.18,18.49s-2.39,13.79-7.18,18.43c-4.79,4.64-11.08,6.96-18.88,6.96h-19.94v31.86h-9.75v-82.76ZM636.19,410.15v33.53h12.98c2.56,0,4.83-.1,6.79-.31,1.97-.2,3.86-.52,5.68-.95,1.82-.43,3.34-1.04,4.57-1.84,1.22-.8,2.32-1.82,3.29-3.06.97-1.24,1.66-2.74,2.09-4.48.43-1.74.64-3.77.64-6.07,0-5.35-1.43-9.49-4.29-12.42-2.86-2.93-6.91-4.4-12.14-4.4h-19.6Z"/>
          <path class="cls-4" d="M775.52,449.47v-12.42c0-11.58,2.97-20.7,8.91-27.34,5.94-6.65,13.9-9.97,23.86-9.97s17.92,3.3,23.84,9.91c5.92,6.61,8.88,15.74,8.88,27.4v12.42c0,11.58-2.98,20.56-8.94,26.93-5.96,6.37-13.95,9.55-23.98,9.55s-18.01-3.18-23.84-9.55c-5.83-6.37-8.74-15.34-8.74-26.93ZM785.15,437.05v12.42c0,4.6.59,8.71,1.78,12.31,1.19,3.6,2.83,6.51,4.93,8.72,2.1,2.21,4.51,3.87,7.24,4.98,2.73,1.11,5.76,1.67,9.11,1.67s6.35-.56,9.13-1.67c2.78-1.11,5.24-2.78,7.38-4.98,2.13-2.21,3.78-5.12,4.93-8.72,1.15-3.6,1.73-7.7,1.73-12.31v-12.42c0-9.13-2.15-16.17-6.43-21.11-4.29-4.94-9.87-7.41-16.74-7.41s-12.34,2.45-16.63,7.35c-4.29,4.9-6.43,11.95-6.43,21.16Z"/>
          <path class="cls-4" d="M1058.79,484.22h-9.75v-82.76h48.34v8.8h-38.6v28.96h35.48v8.86h-35.48v36.15Z"/>
          <path class="cls-4" d="M1203.91,484.22h-9.75v-82.76h9.75v82.76Z"/>
          <path class="cls-4" d="M1316.89,484.22h-9.75v-82.76h9.75l42.33,66.16h.44v-66.16h9.64v82.76h-9.64l-42.44-66.17h-.33v66.17Z"/>
          <path class="cls-4" d="M1474.04,484.22h-9.97l29.8-82.76h9.41l29.69,82.76h-10.47l-8.58-25.51h-31.3l-8.58,25.51ZM1498.49,413.38h-.33l-12.76,37.48h25.84l-12.75-37.48Z"/>
          <path class="cls-4" d="M1637.48,484.22h-9.75v-82.76h9.75l42.33,66.16h.44v-66.16h9.64v82.76h-9.64l-42.44-66.17h-.33v66.17Z"/>
          <path class="cls-4" d="M1799.53,437.05v12.14c0,9.36,2.02,16.36,6.07,21,4.05,4.64,9.64,6.96,16.76,6.96,6.39,0,11.36-1.68,14.93-5.04,3.56-3.36,5.35-7.47,5.35-12.34h9.52c0,2.93-.6,5.88-1.81,8.86s-2.97,5.79-5.29,8.47c-2.32,2.67-5.48,4.82-9.5,6.43-4.01,1.62-8.58,2.42-13.7,2.42-9.88,0-17.67-3.15-23.39-9.44-5.72-6.29-8.58-15.35-8.58-27.15v-12.53c0-11.7,2.9-20.8,8.69-27.32,5.79-6.52,13.59-9.77,23.39-9.77,4.9,0,9.32.81,13.26,2.42,3.94,1.62,7.1,3.78,9.5,6.49,2.39,2.71,4.23,5.67,5.51,8.88,1.28,3.21,1.92,6.51,1.92,9.89h-9.52c0-4.94-1.86-9.32-5.57-13.14-3.71-3.82-8.75-5.74-15.09-5.74-6.79,0-12.24,2.45-16.32,7.35-4.08,4.9-6.12,11.95-6.12,21.16Z"/>
          <path class="cls-4" d="M2000.73,475.42v8.8h-49.18v-82.76h49.18v8.8h-39.43v27.23h37.2v8.8h-37.2v29.13h39.43Z"/>
          <path class="cls-4" d="M2110.6,484.22h-9.75v-82.76h9.75v82.76Z"/>
          <path class="cls-4" d="M2243.3,401.46c4.38,0,8.3.68,11.75,2.03,3.45,1.36,6.2,3.18,8.24,5.46,2.04,2.28,3.58,4.86,4.62,7.71,1.04,2.86,1.56,5.94,1.56,9.25,0,6.2-1.49,11.19-4.46,14.98-2.97,3.79-6.63,6.48-10.97,8.07l16.93,35.26h-11.14l-15.37-33.25h-20.89v33.25h-9.75v-82.76h29.46ZM2223.58,442.28h18.1c5.87,0,10.3-1.36,13.31-4.07,3.01-2.71,4.51-6.57,4.51-11.58,0-5.35-1.54-9.43-4.62-12.25-3.08-2.82-7.33-4.23-12.75-4.23h-18.55v32.14Z"/>
          <path class="cls-4" d="M2366.69,449.47v-12.42c0-11.58,2.97-20.7,8.91-27.34,5.94-6.65,13.9-9.97,23.86-9.97s17.92,3.3,23.84,9.91c5.92,6.61,8.88,15.74,8.88,27.4v12.42c0,11.58-2.98,20.56-8.94,26.93-5.96,6.37-13.95,9.55-23.98,9.55s-18.01-3.18-23.84-9.55c-5.83-6.37-8.74-15.34-8.74-26.93ZM2376.33,437.05v12.42c0,4.6.59,8.71,1.78,12.31,1.19,3.6,2.83,6.51,4.93,8.72,2.1,2.21,4.51,3.87,7.24,4.98,2.73,1.11,5.76,1.67,9.11,1.67s6.35-.56,9.13-1.67c2.78-1.11,5.24-2.78,7.38-4.98,2.13-2.21,3.78-5.12,4.93-8.72,1.15-3.6,1.73-7.7,1.73-12.31v-12.42c0-9.13-2.15-16.17-6.43-21.11-4.29-4.94-9.87-7.41-16.74-7.41s-12.34,2.45-16.63,7.35c-4.29,4.9-6.43,11.95-6.43,21.16Z"/>
        </g>
      </g>
      <g>
        <path class="cls-4" d="M194.38,0L0,194.42l97.14,97.14h.03v.04l31.78,31.75v.04l26.17,26.17,26.17,26.17,13.08,13.09,65.46-65.46,31.78-31.75v-.04l97.14-97.14L194.38,0ZM233.63,103.71c0-10.08,10.94-16.37,19.66-11.33,4.04,2.32,6.54,6.65,6.54,11.33v156.05l-16.84-16.8-9.37-9.37V103.71ZM128.95,103.71c0-4.68,2.47-9.01,6.54-11.33,2.11-1.22,4.36-1.79,6.54-1.79,6.83,0,13.09,5.47,13.09,13.12v90.63l-26.17.04v-90.67ZM76.58,133.96c0-4.68,2.5-9.01,6.54-11.37,2.11-1.22,4.33-1.79,6.51-1.79,6.86,0,13.16,5.51,13.16,13.12v60.46h-26.21v-60.42ZM194.38,194.34h-13.08v-120.84c0-4.68,2.5-9.01,6.54-11.37,2.04-1.14,4.29-1.75,6.54-1.75s4.5.61,6.54,1.75c4.08,2.36,6.54,6.69,6.54,11.33v133.96l-13.08-13.08ZM305.64,266.2c-2.11,1.22-4.36,1.79-6.54,1.79-6.83,0-13.09-5.47-13.09-13.12v-120.95c0-10.05,10.9-16.37,19.63-11.33,4.04,2.36,6.54,6.69,6.54,11.37v120.91c0,4.65-2.5,8.97-6.54,11.33Z"/>
        <polygon class="cls-1" points="291.59 291.55 259.84 323.3 259.84 323.33 194.38 388.79 181.3 375.71 155.13 349.54 128.95 323.37 97.14 291.55 97.17 291.55 128.95 259.77 128.95 259.73 155.13 233.6 194.38 194.34 207.46 207.43 243 242.97 259.84 259.8 291.59 291.55"/>
        <path class="cls-4" d="M291.62,291.59v-.04h-.04l-31.75-31.75v-.04l-16.84-16.8-35.54-35.54-13.08-13.08-97.21,97.21v.04L0,388.72l194.38,194.42,194.38-194.42-97.14-97.14ZM102.78,449.21c0,10.05-10.94,16.37-19.66,11.33-4.04-2.36-6.54-6.69-6.54-11.33v-120.95c0-4.65,2.5-8.97,6.54-11.33,2.11-1.22,4.33-1.79,6.51-1.79,6.86,0,13.16,5.51,13.16,13.12v120.95ZM155.13,479.42c0,10.08-10.9,16.37-19.63,11.33-4.08-2.32-6.54-6.65-6.54-11.33v-156.05l26.17,26.17v129.88ZM207.46,509.67c0,4.65-2.47,8.97-6.54,11.33-2.04,1.18-4.25,1.75-6.54,1.75s-4.5-.57-6.54-1.75c-4.04-2.36-6.54-6.69-6.54-11.33v-133.96l13.08,13.09h13.08v120.87ZM259.84,479.42c0,4.68-2.5,9.01-6.54,11.33-2.11,1.22-4.36,1.79-6.54,1.79-6.83,0-13.12-5.47-13.12-13.12v-90.63l26.21-.04v90.67ZM312.18,449.21c0,4.65-2.5,8.97-6.54,11.33-2.11,1.22-4.33,1.79-6.51,1.79-6.83,0-13.12-5.51-13.12-13.12v-60.46h26.17v60.46Z"/>
        <g>
          <path class="cls-5" d="M312.18,328.27v60.49h-26.17v-60.49c0-10.05,10.9-16.37,19.63-11.33,4.04,2.36,6.54,6.69,6.54,11.33Z"/>
          <path class="cls-5" d="M259.84,298.06v90.7l-26.21.04v-90.74c0-2.4.61-4.61,1.72-6.47,3.36-5.97,11.3-8.69,17.95-4.86,2.04,1.18,3.68,2.86,4.83,4.86,1.11,1.93,1.72,4.15,1.72,6.47Z"/>
          <path class="cls-5" d="M207.46,267.81v120.98h-13.08l-13.08-13.09v-107.9c0-4.65,2.5-8.97,6.54-11.33,2.04-1.14,4.29-1.75,6.54-1.75s4.5.61,6.54,1.75c4.08,2.36,6.54,6.69,6.54,11.33Z"/>
          <path class="cls-5" d="M155.13,298.06v51.48l-26.17-26.17v-25.31c0-2.32.61-4.54,1.72-6.47,1.11-2,2.75-3.68,4.83-4.86,2.11-1.22,4.36-1.79,6.54-1.79,4.68,0,9.08,2.57,11.41,6.65,1.07,1.86,1.68,4.08,1.68,6.47Z"/>
        </g>
        <g>
          <path class="cls-5" d="M259.84,259.77v25.31c0,2.32-.61,4.58-1.72,6.51-1.14,1.97-2.79,3.65-4.83,4.83-2.11,1.22-4.36,1.79-6.54,1.79-4.68,0-9.08-2.54-11.4-6.61-1.07-1.89-1.72-4.08-1.72-6.51v-51.48l9.37,9.37,16.84,16.8Z"/>
          <path class="cls-5" d="M207.46,207.43v107.9c0,4.65-2.47,8.97-6.54,11.33-2.04,1.18-4.25,1.75-6.54,1.75s-4.5-.57-6.54-1.75c-4.04-2.36-6.54-6.69-6.54-11.33v-120.98h13.08l13.08,13.08Z"/>
          <path class="cls-5" d="M155.13,194.34v90.74c0,2.43-.64,4.61-1.68,6.51-3.43,5.93-11.33,8.65-17.95,4.83-2.04-1.18-3.68-2.86-4.83-4.83-1.11-1.93-1.72-4.18-1.72-6.51v-90.7l26.17-.04Z"/>
          <path class="cls-5" d="M102.78,194.38v60.49c0,10.08-10.94,16.37-19.66,11.33-4.04-2.36-6.54-6.69-6.54-11.33v-60.49h26.21Z"/>
        </g>
        <polygon class="cls-2" points="388.76 388.72 312.18 388.76 259.84 388.76 233.63 388.79 194.38 388.79 181.3 375.71 155.13 349.54 128.95 323.37 0 194.42 76.58 194.38 128.95 194.38 155.13 194.34 194.38 194.34 207.46 207.43 243 242.97 259.84 259.8 388.76 388.72"/>
        <polygon class="cls-3" points="388.76 388.72 312.18 388.76 259.84 388.76 233.63 388.79 194.38 388.79 181.3 375.71 155.13 349.54 128.95 323.37 0 194.42 76.58 194.38 128.95 194.38 155.13 194.34 194.38 194.34 207.46 207.43 243 242.97 259.84 259.8 388.76 388.72"/>
      </g>
    </g>
  </g>
</svg>